<svg width="121" height="130" viewBox="0 0 121 130" fill="none" xmlns="http://www.w3.org/2000/svg">
<path d="M87.8655 127.065L87.8678 127.064C94.5464 125.702 100.182 121.976 103.924 116.649C106.272 113.306 107.846 109.421 108.432 105.105C108.433 105.103 108.433 105.101 108.433 105.099L119.072 29.7537C119.072 29.7526 119.072 29.7515 119.072 29.7505C120.415 20.4029 116.537 11.2627 108.976 5.95154C101.416 0.640115 91.5017 0.0916722 83.163 4.52524C83.1625 4.52546 83.1618 4.52581 83.1612 4.52617L15.8811 40.0894C15.8801 40.0899 15.8793 40.0903 15.8784 40.0908C5.9078 45.3359 0.584186 55.8822 2.19916 66.8835C3.81651 77.9016 11.9835 86.0217 22.894 87.522C22.8946 87.522 22.8953 87.5221 22.896 87.5222L43.4195 90.3688C43.4213 90.369 43.4232 90.3694 43.425 90.3696C47.0276 90.8883 50.1773 93.1109 51.833 96.2715L61.431 114.593C66.5419 124.35 76.951 129.28 87.8655 127.065ZM15.5624 64.5493L15.5611 64.5395C15.1543 61.7655 15.6238 58.5311 17.4985 55.8625C18.4901 54.451 19.8739 53.1221 21.8231 52.0888C21.8238 52.0883 21.8245 52.088 21.8253 52.0876L89.2032 16.587L89.2095 16.5837C93.1579 14.4891 97.5974 14.7386 101.13 17.22C104.662 19.7014 106.402 23.7932 105.771 28.218L105.77 28.2216L95.1288 103.586C95.129 103.585 95.1287 103.586 95.1288 103.586C94.2481 109.805 89.7052 112.878 85.576 113.734C81.4802 114.584 76.2089 113.458 73.3683 107.989L73.3644 107.982L63.7664 89.6602L63.7624 89.6525C60.1026 82.7283 53.3697 77.9984 45.6147 76.9036L45.6061 76.9025L25.1234 74.0877C25.1219 74.0875 25.1206 74.0874 25.1193 74.087C19.018 73.2251 16.1494 68.6695 15.5624 64.5493Z" fill="#F95538"/>
<path d="M95.1288 103.586L105.77 28.2216L105.771 28.218C106.402 23.7932 104.662 19.7014 101.13 17.22C97.5974 14.7386 93.1579 14.4891 89.2095 16.5837L89.2032 16.587L21.8253 52.0876C21.8245 52.088 21.8238 52.0883 21.8231 52.0888C19.8739 53.1221 18.4901 54.451 17.4985 55.8625C15.6238 58.5311 15.1543 61.7655 15.5611 64.5395L15.5624 64.5493C16.1494 68.6695 19.018 73.2251 25.1193 74.087C25.1206 74.0874 25.1219 74.0875 25.1234 74.0877L45.6061 76.9025L45.6147 76.9036C53.3697 77.9984 60.1026 82.7283 63.7624 89.6525L63.7664 89.6602L73.3644 107.982L73.3683 107.989C76.209 113.458 81.4802 114.584 85.576 113.734C89.7052 112.878 94.2481 109.805 95.1288 103.586ZM95.1288 103.586C95.1287 103.586 95.129 103.585 95.1288 103.586ZM87.8655 127.065L87.8678 127.064C94.5464 125.702 100.182 121.976 103.924 116.649C106.272 113.306 107.846 109.421 108.432 105.105C108.433 105.103 108.433 105.101 108.433 105.099L119.072 29.7537C119.072 29.7526 119.072 29.7515 119.072 29.7505C120.415 20.4029 116.537 11.2627 108.976 5.95154C101.416 0.640115 91.5017 0.0916722 83.163 4.52524C83.1625 4.52546 83.1618 4.52581 83.1612 4.52617L15.8811 40.0894C15.8801 40.0899 15.8793 40.0903 15.8784 40.0908C5.9078 45.3359 0.584188 55.8822 2.19915 66.8835C3.81651 77.9016 11.9835 86.0217 22.894 87.522C22.8946 87.522 22.8953 87.5221 22.896 87.5222L43.4195 90.3688C43.4213 90.369 43.4232 90.3694 43.425 90.3696C47.0276 90.8883 50.1773 93.1109 51.833 96.2715L61.431 114.593C66.5419 124.35 76.951 129.28 87.8655 127.065Z" stroke="#F95538" stroke-width="3"/>
</svg>
